<svg width="709" height="102" viewBox="0 0 709 102" fill="none" xmlns="http://www.w3.org/2000/svg">
<path d="M0 0H100V100H0V0Z" fill="#D9D9D9"/>
<path d="M115 0H165V100H115V0Z" fill="#D9D9D9"/>
<path d="M180 0H205V100H180V0Z" fill="#D9D9D9"/>
<path d="M325.43 96.62V100H294.1V96.62L301.25 95.84C302.637 95.6667 303.46 95.32 303.72 94.8C303.98 94.1933 304.11 92.4167 304.11 89.47V19.01L277.07 89.6H268.23L241.06 19.01V89.47C241.06 92.4167 241.19 94.1933 241.45 94.8C241.71 95.32 242.533 95.6667 243.92 95.84L251.07 96.62V100H226.24V96.62L233.39 95.84C234.777 95.6667 235.6 95.32 235.86 94.8C236.12 94.1933 236.25 92.4167 236.25 89.47V22.13C236.25 19.1833 236.12 17.45 235.86 16.93C235.6 16.3233 234.777 15.9333 233.39 15.76L226.24 15.11V11.6H250.03L276.16 79.85L302.29 11.6H325.43V15.11L318.28 15.76C316.893 15.9333 316.07 16.3233 315.81 16.93C315.55 17.45 315.42 19.1833 315.42 22.13V89.47C315.42 92.4167 315.55 94.1933 315.81 94.8C316.07 95.32 316.893 95.6667 318.28 95.84L325.43 96.62Z" fill="white"/>
<path d="M391.776 85.18C390.216 91.0733 387.269 95.2333 382.936 97.66C378.689 100.087 373.966 101.3 368.766 101.3C359.146 101.3 351.952 98.3967 347.186 92.59C342.419 86.6967 340.036 78.8533 340.036 69.06V66.46C340.036 56.7533 342.332 48.9967 346.926 43.19C351.519 37.2967 358.192 34.35 366.946 34.35C371.626 34.35 375.872 35.3033 379.686 37.21C383.586 39.1167 386.662 41.9333 388.916 45.66C391.256 49.3867 392.426 54.0233 392.426 59.57C392.426 62.17 392.166 64.9 391.646 67.76H351.736V71.66C351.736 80.76 353.122 87.3033 355.896 91.29C358.756 95.19 363.349 97.14 369.676 97.14C373.662 97.14 376.956 96.1 379.556 94.02C382.242 91.94 384.019 88.3433 384.886 83.23L391.776 85.18ZM366.946 38.51C361.832 38.51 358.019 40.46 355.506 44.36C352.992 48.26 351.736 54.6733 351.736 63.6H380.986V63.21C381.159 62.0833 381.289 61 381.376 59.96C381.462 58.8333 381.506 57.8367 381.506 56.97C381.506 50.47 380.162 45.79 377.476 42.93C374.789 39.9833 371.279 38.51 366.946 38.51Z" fill="white"/>
<path d="M419.906 21.09C417.826 21.09 416.093 20.44 414.706 19.14C413.406 17.7533 412.756 15.9767 412.756 13.81C412.756 11.73 413.406 10.04 414.706 8.74C416.093 7.44 417.826 6.79 419.906 6.79C421.986 6.79 423.677 7.44 424.977 8.74C426.363 10.04 427.056 11.73 427.056 13.81C427.056 15.9767 426.363 17.7533 424.977 19.14C423.677 20.44 421.986 21.09 419.906 21.09ZM404.696 39.16V35.65H425.366V89.47C425.366 92.5033 425.496 94.28 425.757 94.8C426.016 95.32 426.84 95.6667 428.226 95.84L435.376 96.62V100H404.696V96.62L411.846 95.84C413.233 95.6667 414.056 95.32 414.316 94.8C414.576 94.28 414.706 92.5033 414.706 89.47V46.18C414.706 43.1467 414.576 41.37 414.316 40.85C414.056 40.33 413.233 39.9833 411.846 39.81L404.696 39.16Z" fill="white"/>
<path d="M510.754 96.75V100H490.734V89.73C488.047 93.7167 485.057 96.6633 481.764 98.57C478.557 100.39 474.961 101.3 470.974 101.3C463.521 101.3 457.714 98.5267 453.554 92.98C449.481 87.3467 447.444 79.4167 447.444 69.19V66.59C447.444 56.7967 449.827 48.9967 454.594 43.19C459.447 37.2967 466.077 34.35 474.484 34.35C480.637 34.35 485.837 36.2567 490.084 40.07V14.33C490.084 11.2967 489.954 9.52 489.694 8.99999C489.434 8.48 488.611 8.13333 487.224 7.96L480.074 7.30999V3.8H500.744V89.47C500.744 92.5033 500.874 94.28 501.134 94.8C501.394 95.32 502.217 95.6667 503.604 95.84L510.754 96.75ZM459.144 73.09C459.144 81.2367 460.314 87.2167 462.654 91.03C465.081 94.8433 468.417 96.75 472.664 96.75C475.437 96.75 478.297 95.8833 481.244 94.15C484.191 92.4167 487.137 88.9067 490.084 83.62V46.44C486.271 41.3267 481.287 38.77 475.134 38.77C469.587 38.77 465.514 40.8933 462.914 45.14C460.401 49.3867 459.144 55.2367 459.144 62.69V73.09Z" fill="white"/>
<path d="M588.504 96.62V100H568.484V89.6C565.451 93.6733 561.984 96.6633 558.084 98.57C554.271 100.39 550.458 101.3 546.644 101.3C540.491 101.3 535.681 99.35 532.214 95.45C528.834 91.4633 527.144 85.8733 527.144 78.68V46.18C527.144 43.1467 527.014 41.37 526.754 40.85C526.494 40.33 525.671 39.9833 524.284 39.81L517.134 39.16V35.65H537.804V78.55C537.804 84.9633 538.758 89.5133 540.664 92.2C542.658 94.8 545.518 96.1 549.244 96.1C552.018 96.1 555.051 95.2333 558.344 93.5C561.724 91.7667 564.888 88.43 567.834 83.49V46.18C567.834 43.1467 567.704 41.37 567.444 40.85C567.184 40.2433 566.361 39.8967 564.974 39.81L555.224 39.16V35.65H578.494V89.47C578.494 92.5033 578.624 94.28 578.884 94.8C579.144 95.32 579.968 95.6667 581.354 95.84L588.504 96.62Z" fill="white"/>
<path d="M668.147 96.62V100H637.467V96.62L644.617 95.84C646.003 95.6667 646.827 95.32 647.087 94.8C647.347 94.28 647.477 92.5033 647.477 89.47V57.1C647.477 50.6867 646.48 46.18 644.487 43.58C642.58 40.8933 639.763 39.55 636.037 39.55C633.35 39.55 630.317 40.4167 626.937 42.15C623.643 43.8833 620.48 47.22 617.447 52.16V89.47C617.447 92.5033 617.577 94.28 617.837 94.8C618.097 95.32 618.92 95.6667 620.307 95.84L627.457 96.62V100H596.777V96.62L603.927 95.84C605.313 95.6667 606.137 95.32 606.397 94.8C606.657 94.28 606.787 92.5033 606.787 89.47V46.18C606.787 43.1467 606.657 41.37 606.397 40.85C606.137 40.33 605.313 39.9833 603.927 39.81L596.777 39.16V35.65H616.797V46.18C619.83 42.1067 623.253 39.1167 627.067 37.21C630.967 35.3033 634.823 34.35 638.637 34.35C647.997 34.35 654.02 38.64 656.707 47.22C659.913 42.7133 663.467 39.4633 667.367 37.47C671.353 35.39 675.34 34.35 679.327 34.35C685.48 34.35 690.247 36.3433 693.627 40.33C697.093 44.23 698.827 49.7767 698.827 56.97V89.47C698.827 92.5033 698.957 94.28 699.217 94.8C699.477 95.32 700.3 95.6667 701.687 95.84L708.837 96.62V100H678.157V96.62L685.307 95.84C686.693 95.6667 687.517 95.32 687.777 94.8C688.037 94.28 688.167 92.5033 688.167 89.47V57.1C688.167 50.6867 687.17 46.18 685.177 43.58C683.27 40.8933 680.453 39.55 676.727 39.55C674.04 39.55 670.963 40.46 667.497 42.28C664.117 44.0133 660.91 47.4367 657.877 52.55C657.963 53.2433 658.007 53.98 658.007 54.76C658.093 55.4533 658.137 56.19 658.137 56.97V89.47C658.137 92.5033 658.267 94.28 658.527 94.8C658.787 95.32 659.61 95.6667 660.997 95.84L668.147 96.62Z" fill="white"/>
</svg>
